<svg xmlns="http://www.w3.org/2000/svg" viewBox="0 0 465 465" role="img" aria-labelledby="title desc">
  <title id="title">26アカデミー例会SNS QRコード</title>
  <desc id="desc">このサイトへアクセスするためのQRコード画像</desc>
  <rect width="465" height="465" fill="#fff"/>
  <g fill="#000" shape-rendering="crispEdges">
    <path d="M45 45h105v105H45zM60 60v75h75V60H60zm15 15h45v45H75zM315 45h105v105H315zM330 60v75h75V60h-75zm15 15h45v45h-45zM45 315h105v105H45zM60 330v75h75v-75H60zm15 15h45v45H75z"/>
    <path d="M180 45h15v15h-15zM225 45h15v15h-15zM255 45h30v15h-30zM165 60h15v30h-15zM195 60h45v15h-45zM240 60h15v30h-15zM285 60h15v60h-15zM165 90h60v15h-60zM270 90h30v15h-30zM180 105h45v15h-45zM240 105h60v15h-60zM165 120h15v45h-15zM195 120h15v15h-15zM225 120h30v15h-30zM270 120h30v30h-30zM180 135h15v30h-15zM210 135h30v15h-30zM255 135h15v30h-15zM135 165h60v15h-60zM210 165h15v30h-15zM240 165h15v15h-15zM270 165h30v30h-30zM315 165h45v15h-45zM375 165h30v15h-30zM45 180h30v15H45zM90 180h15v60H90zM165 180h30v15h-30zM225 180h75v15h-75zM300 180h30v15h-30zM405 180h15v30h-15zM60 195h60v30H60zM135 195h30v15h-30zM180 195h30v15h-30zM240 195h75v15h-75zM390 195h30v15h-30zM75 225h30v15H75zM120 225h60v15h-60zM225 225h45v45h-45zM300 225h60v15h-60zM375 225h45v45h-45zM45 255h15v15H45zM75 255h105v15H75zM195 255h30v15h-30zM255 255h15v15h-15zM300 255h75v15h-75zM405 255h15v45h-15zM60 270h60v15H60zM150 270h30v15h-30zM210 270h60v15h-60zM285 270h15v60h-15zM315 270h15v15h-15zM345 270h45v15h-45zM45 285h120v15H45zM165 285h75v15h-75zM270 285h120v15H270zM165 300h15v30h-15zM240 300h60v15h-60zM345 300h45v15h-45zM405 300h15v30h-15zM180 315h30v15h-30zM225 315h15v30h-15zM255 315h45v45h-45zM315 315h15v15h-15zM345 315h45v30h-45zM165 345h45v30h-45zM240 345h30v45h-30zM285 345h30v45h-30zM345 345h60v15h-60zM180 375h15v15h-15zM225 375h60v30h-60zM315 375h15v30h-15zM360 375h15v30h-15zM405 375h15v15h-15zM165 390h45v30h-45zM240 390h30v30h-30zM285 390h15v30h-15zM330 405h15v15h-15zM390 405h30v15h-30z"/>
  </g>
</svg>
